<svg width="24" height="23" viewBox="0 0 24 23" fill="none" xmlns="http://www.w3.org/2000/svg">
<path d="M19.7143 4H4.28571C3.94472 4 3.6177 4.15804 3.37658 4.43934C3.13546 4.72064 3 5.10218 3 5.5V17.5C3 17.8978 3.13546 18.2794 3.37658 18.5607C3.6177 18.842 3.94472 19 4.28571 19H19.7143C20.0553 19 20.3823 18.842 20.6234 18.5607C20.8645 18.2794 21 17.8978 21 17.5V5.5C21 5.10218 20.8645 4.72064 20.6234 4.43934C20.3823 4.15804 20.0553 4 19.7143 4ZM18.3 5.5L12 10.585L5.7 5.5H18.3ZM4.28571 17.5V6.1825L11.6336 12.115C11.7412 12.2021 11.869 12.2488 12 12.2488C12.131 12.2488 12.2588 12.2021 12.3664 12.115L19.7143 6.1825V17.5H4.28571Z" fill="black"/>
</svg>
