<svg width="336" height="88" viewBox="0 0 336 88" fill="none" xmlns="http://www.w3.org/2000/svg">
<g clip-path="url(#clip0_54_122)">
<path d="M220.642 64.4537H211.775C211.477 64.4537 211.178 64.6773 211.178 65.0498V68.999C211.178 69.2971 210.955 69.5951 210.582 69.5951H208.347C208.049 69.5951 207.751 69.3716 207.751 68.999V65.0498C207.751 64.7518 207.527 64.4537 207.155 64.4537H198.362C198.064 64.4537 197.766 64.2302 197.766 63.8576V62.1438C197.766 61.8458 197.989 61.5477 198.362 61.5477H207.155C207.453 61.5477 207.751 61.3242 207.751 60.9516V59.6849C207.751 59.3868 207.527 59.0888 207.155 59.0888H201.566C201.268 59.0888 200.97 58.8653 200.97 58.4927V56.8534C200.97 56.5554 201.193 56.2573 201.566 56.2573H217.363C217.661 56.2573 217.959 56.4808 217.959 56.8534V58.4927C217.959 58.7907 217.736 59.0888 217.363 59.0888H211.626C211.328 59.0888 211.029 59.3123 211.029 59.6849V60.9516C211.029 61.2497 211.253 61.5477 211.626 61.5477H220.493C220.791 61.5477 221.089 61.7713 221.089 62.1438V63.8576C221.089 64.1557 220.866 64.4537 220.493 64.4537H220.642ZM200.895 52.4571H198.883C198.585 52.4571 198.287 52.2336 198.287 51.861V47.8373C198.287 47.5393 198.511 47.2412 198.883 47.2412H220.195C220.493 47.2412 220.791 47.4647 220.791 47.8373V51.563C220.791 51.861 220.568 52.1591 220.195 52.1591H218.034C217.736 52.1591 217.438 51.9355 217.438 51.563V50.5198C217.438 50.2217 217.214 49.9237 216.842 49.9237H201.939C201.64 49.9237 201.342 50.1472 201.342 50.5198V51.861C201.342 52.1591 201.119 52.4571 200.746 52.4571H200.895ZM208.123 51.2649C207.9 54.0964 206.708 55.5867 200.597 56.1083C200.374 56.1083 200.076 55.9592 200.001 55.7357C199.852 55.3631 199.629 54.9161 199.33 54.5435C199.107 54.1709 199.33 53.7239 199.778 53.6493C203.876 53.4258 204.547 52.6807 204.77 51.1904C204.77 50.8924 205.068 50.6688 205.366 50.6688H207.602C207.974 50.6688 208.198 50.9669 208.198 51.2649H208.123ZM213.488 50.6688C213.787 50.6688 214.085 50.8924 214.085 51.2649V52.6062C214.085 53.1277 214.159 53.3513 214.83 53.3513H217.885C218.332 53.3513 219.077 53.3513 219.673 53.2768C219.971 53.2768 220.269 53.5003 220.269 53.7984C220.269 54.2454 220.344 54.6925 220.418 55.0651C220.418 55.3631 220.269 55.6612 219.897 55.6612C219.375 55.6612 218.63 55.6612 218.034 55.6612H214.457C211.626 55.6612 211.029 54.6925 211.029 52.4571V51.1904C211.029 50.8924 211.253 50.5943 211.626 50.5943H213.563L213.488 50.6688Z" fill="#92278F"/>
<path d="M249.181 52.3082C249.032 52.6062 248.883 52.9043 248.734 53.2023C248.511 53.5749 248.734 54.022 249.181 54.022H259.911C260.21 54.022 260.433 54.2455 260.433 54.5436V66.3911C260.433 67.8814 260.135 68.7011 259.092 69.1481C258.123 69.5952 256.782 69.6697 254.844 69.6697C254.621 69.6697 254.397 69.5207 254.323 69.2226C254.174 68.7011 254.025 68.1049 253.801 67.5088C253.652 67.1363 253.95 66.7637 254.323 66.7637C255.366 66.7637 256.409 66.7637 256.782 66.7637C257.229 66.7637 257.378 66.6147 257.378 66.2421V65.2734C257.378 64.9754 257.154 64.7519 256.856 64.7519H248.436C248.138 64.7519 247.914 64.9754 247.914 65.2734V68.9991C247.914 69.2972 247.691 69.5207 247.393 69.5207H245.381C245.083 69.5207 244.859 69.2972 244.859 68.9991V59.983C244.859 59.5359 244.263 59.2379 243.965 59.6104C243.294 60.2066 242.624 60.8027 241.804 61.3243C241.581 61.4733 241.282 61.3988 241.059 61.1752C240.686 60.7281 240.239 60.2066 239.792 59.7595C239.569 59.5359 239.569 59.1634 239.867 58.9398C242.102 57.3751 243.965 55.2142 245.381 52.8298C245.604 52.4572 245.381 52.0101 244.934 52.0101H240.612C240.314 52.0101 240.09 51.7866 240.09 51.4885V49.7747C240.09 49.4767 240.314 49.2531 240.612 49.2531H246.797C247.02 49.2531 247.244 49.1041 247.318 48.8806C247.616 48.1354 247.84 47.3903 248.063 46.7197C248.138 46.4216 248.436 46.2726 248.734 46.3471L250.895 46.7942C251.193 46.7942 251.417 47.1668 251.268 47.5393C251.119 47.9119 251.044 48.2099 250.895 48.5825C250.746 48.9551 251.044 49.3276 251.417 49.3276H262.967C263.265 49.3276 263.488 49.5512 263.488 49.8492V51.563C263.488 51.8611 263.265 52.0846 262.967 52.0846H249.777C249.554 52.0846 249.405 52.2337 249.256 52.3827L249.181 52.3082ZM256.856 56.5554H248.436C248.138 56.5554 247.914 56.7789 247.914 57.077V57.5986C247.914 57.8966 248.138 58.1202 248.436 58.1202H256.856C257.154 58.1202 257.378 57.8966 257.378 57.5986V57.077C257.378 56.7789 257.154 56.5554 256.856 56.5554ZM257.378 61.6968V61.1752C257.378 60.8772 257.154 60.6536 256.856 60.6536H248.436C248.138 60.6536 247.914 60.8772 247.914 61.1752V61.6968C247.914 61.9949 248.138 62.2184 248.436 62.2184H256.856C257.154 62.2184 257.378 61.9949 257.378 61.6968Z" fill="#92278F"/>
<path d="M285.322 66.5402V69.0736C285.322 69.3717 285.098 69.5952 284.8 69.5952H282.788C282.49 69.5952 282.267 69.3717 282.267 69.0736V66.5402C282.267 66.2421 282.043 66.0186 281.745 66.0186H277.125C276.827 66.0186 276.604 65.795 276.604 65.497V63.8577C276.604 63.5596 276.827 63.3361 277.125 63.3361H281.745C282.043 63.3361 282.267 63.1126 282.267 62.8145V62.5165C282.267 62.2184 282.043 61.9949 281.745 61.9949H278.168C277.87 61.9949 277.647 61.7713 277.647 61.4733V53.4259C277.647 53.1278 277.87 52.9043 278.168 52.9043H289.495C289.793 52.9043 290.016 53.1278 290.016 53.4259V61.4733C290.016 61.7713 289.793 61.9949 289.495 61.9949H285.694C285.396 61.9949 285.173 62.2184 285.173 62.5165V62.8145C285.173 63.1126 285.396 63.3361 285.694 63.3361H290.165C290.463 63.3361 290.687 63.5596 290.687 63.8577V65.497C290.687 65.795 290.463 66.0186 290.165 66.0186H285.694C285.396 66.0186 285.173 66.2421 285.173 66.5402H285.322ZM282.937 52.1591H278.019C277.721 52.1591 277.498 51.9356 277.498 51.6376V47.2413C277.498 46.9432 277.721 46.7197 278.019 46.7197H282.937C283.235 46.7197 283.459 46.9432 283.459 47.2413V51.6376C283.459 51.9356 283.235 52.1591 282.937 52.1591ZM280.627 48.657H280.255C279.957 48.657 279.733 48.8806 279.733 49.1786V49.8492C279.733 50.1473 279.957 50.3708 280.255 50.3708H280.627C280.925 50.3708 281.149 50.1473 281.149 49.8492V49.1786C281.149 48.8806 280.925 48.657 280.627 48.657ZM280.851 56.6299H282.043C282.341 56.6299 282.565 56.4064 282.565 56.1083V55.8103C282.565 55.5122 282.341 55.2887 282.043 55.2887H280.851C280.553 55.2887 280.329 55.5122 280.329 55.8103V56.1083C280.329 56.4064 280.553 56.6299 280.851 56.6299ZM280.851 60.0575H282.043C282.341 60.0575 282.565 59.834 282.565 59.5359V59.1634C282.565 58.8653 282.341 58.6418 282.043 58.6418H280.851C280.553 58.6418 280.329 58.8653 280.329 59.1634V59.5359C280.329 59.834 280.553 60.0575 280.851 60.0575ZM289.867 52.2337H284.875C284.577 52.2337 284.353 52.0101 284.353 51.7121V47.3158C284.353 47.0177 284.577 46.7942 284.875 46.7942H289.867C290.165 46.7942 290.389 47.0177 290.389 47.3158V51.7121C290.389 52.0101 290.165 52.2337 289.867 52.2337ZM286.961 55.3632H285.694C285.396 55.3632 285.173 55.5867 285.173 55.8848V56.1829C285.173 56.4809 285.396 56.7044 285.694 56.7044H286.961C287.259 56.7044 287.483 56.4809 287.483 56.1829V55.8848C287.483 55.5867 287.259 55.3632 286.961 55.3632ZM286.961 58.7163H285.694C285.396 58.7163 285.173 58.9398 285.173 59.2379V59.6105C285.173 59.9085 285.396 60.132 285.694 60.132H286.961C287.259 60.132 287.483 59.9085 287.483 59.6105V59.2379C287.483 58.9398 287.259 58.7163 286.961 58.7163ZM287.557 48.7315H287.185C286.887 48.7315 286.663 48.9551 286.663 49.2531V49.9237C286.663 50.2218 286.887 50.4453 287.185 50.4453H287.557C287.855 50.4453 288.079 50.2218 288.079 49.9237V49.2531C288.079 48.9551 287.855 48.7315 287.557 48.7315ZM300.747 57.3751C299.927 59.5359 298.809 61.6968 297.393 63.6342C297.319 63.7832 297.244 63.9322 297.393 64.0812C297.841 65.348 298.288 66.0186 298.809 66.0931C299.182 66.0931 299.405 65.2735 299.554 63.7087C299.554 63.3361 300.002 63.1126 300.374 63.3361C300.821 63.6342 301.268 63.9322 301.641 64.1558C301.79 64.2303 301.939 64.4538 301.864 64.6773C301.194 68.7756 299.852 69.6697 298.809 69.6697C297.393 69.6697 296.276 68.6265 295.382 66.9873C295.232 66.6892 294.86 66.6147 294.636 66.8382C293.668 67.7324 292.624 68.552 291.507 69.1481C291.283 69.2972 291.06 69.2226 290.911 69.0736C290.538 68.6265 290.016 68.1795 289.495 67.7324C289.197 67.5088 289.271 67.0618 289.569 66.9127C291.209 66.0931 292.699 64.9009 293.966 63.5597C294.115 63.4106 294.115 63.2616 294.115 63.1126C293.668 61.2497 293.37 59.0143 293.072 56.5554C293.072 56.2574 292.773 56.1083 292.55 56.1083L291.358 56.2574C291.06 56.2574 290.836 56.1083 290.836 55.8103L290.613 54.022C290.613 53.7239 290.762 53.5004 291.06 53.5004L292.401 53.3514C292.624 53.3514 292.848 53.1278 292.848 52.8298C292.773 50.9669 292.624 49.0296 292.624 46.9432C292.624 46.6452 292.848 46.4216 293.146 46.4216H295.083C295.382 46.4216 295.605 46.6452 295.605 46.9432C295.605 48.8806 295.754 50.7434 295.829 52.5317C295.829 52.8298 296.127 53.0533 296.35 52.9788L300.97 52.4572C301.268 52.4572 301.492 52.6062 301.492 52.9043L301.715 54.6181C301.715 54.9161 301.566 55.1397 301.268 55.1397L296.499 55.7358C296.201 55.7358 296.052 56.0338 296.052 56.2574C296.127 57.1515 296.276 58.0457 296.35 58.8653C296.35 59.3124 297.021 59.4614 297.244 59.0143C297.692 58.1202 298.064 57.226 298.437 56.3319C298.511 56.0338 298.884 55.8848 299.107 56.0338L300.598 56.8535C300.821 57.0025 300.896 57.226 300.821 57.4496L300.747 57.3751ZM298.511 51.563C298.064 50.5944 297.319 49.2531 296.574 48.2099C296.425 47.9864 296.499 47.6138 296.797 47.4648L298.288 46.7197C298.511 46.6452 298.735 46.7197 298.884 46.8687C299.703 47.9864 300.598 49.2531 301.045 50.2963C301.119 50.5199 301.045 50.8179 300.821 50.9669L299.182 51.7866C298.958 51.9356 298.586 51.7866 298.511 51.563Z" fill="#92278F"/>
<path d="M325.038 57.0771V64.9755C325.038 65.199 325.262 65.4226 325.485 65.4226H333.533C333.757 65.4226 333.98 65.6461 333.98 65.8697V67.956C333.98 68.1796 333.757 68.4031 333.533 68.4031H313.414C313.19 68.4031 312.967 68.1796 312.967 67.956V65.8697C312.967 65.6461 313.19 65.4226 313.414 65.4226H321.238C321.461 65.4226 321.685 65.199 321.685 64.9755V57.0771C321.685 56.8536 321.461 56.63 321.238 56.63H311.998C311.774 56.63 311.551 56.4065 311.551 56.183V54.1711C311.551 53.9476 311.774 53.724 311.998 53.724H321.238C321.461 53.724 321.685 53.5005 321.685 53.2769V46.7198C321.685 46.4962 321.908 46.2727 322.132 46.2727H324.591C324.815 46.2727 325.038 46.4962 325.038 46.7198V53.2769C325.038 53.5005 325.262 53.724 325.485 53.724H334.949C335.172 53.724 335.396 53.9476 335.396 54.1711V56.183C335.396 56.4065 335.172 56.63 334.949 56.63H325.485C325.262 56.63 325.038 56.8536 325.038 57.0771Z" fill="#92278F"/>
<path d="M143.22 65.1991C114.457 65.1991 96.0513 51.8613 85.6936 40.6843C74.4417 28.5386 70.1198 16.542 69.8962 16.0204C69.5236 15.0518 70.0452 13.9341 71.014 13.5615C71.9827 13.1889 73.1004 13.7105 73.473 14.6792C73.473 14.8282 77.7949 26.6013 88.5252 38.1508C102.832 53.5751 121.312 61.3989 143.294 61.3989C161.029 61.3989 175.634 56.9281 192.177 46.5708C208.347 36.3625 226.231 20.5657 248.883 0.521709C249.703 -0.148909 250.895 -0.074396 251.566 0.670735C252.237 1.49038 252.162 2.68259 251.417 3.35321C204.994 44.4845 181.67 65.1991 143.369 65.2736H143.22V65.1991Z" fill="url(#paint0_linear_54_122)"/>
<path d="M197.989 84.0507V74.2895C197.989 73.9169 198.213 73.6934 198.585 73.6934H199.927C200.299 73.6934 200.597 73.9169 200.597 74.2895V78.0151H204.323V74.2895C204.323 73.9169 204.547 73.6934 204.994 73.6934H206.335C206.708 73.6934 206.931 73.9169 206.931 74.2895V84.0507C206.931 84.4233 206.708 84.6468 206.335 84.6468H204.994C204.621 84.6468 204.323 84.4233 204.323 84.0507V80.176H200.597V84.0507C200.597 84.4233 200.374 84.6468 199.927 84.6468H198.585C198.213 84.6468 197.989 84.4233 197.989 84.0507Z" fill="#92278F"/>
<path d="M211.7 84.0507V74.2895C211.7 73.9169 211.924 73.6934 212.296 73.6934H213.638C214.01 73.6934 214.308 73.9169 214.308 74.2895V84.0507C214.308 84.4233 214.085 84.6468 213.638 84.6468H212.296C211.924 84.6468 211.7 84.4233 211.7 84.0507ZM217.96 84.1252L215.351 80.2505C215.053 79.8779 214.979 79.4309 214.979 79.0583C214.979 78.6857 215.053 78.3132 215.351 77.9406L217.81 74.2149C218.034 73.8424 218.258 73.6934 218.705 73.6934H219.748C220.195 73.6934 220.344 73.9169 220.344 74.2895C220.344 74.662 220.344 74.662 220.046 75.0346L217.363 78.9093L220.12 82.8585C220.568 83.5291 220.344 84.2742 219.673 84.6468C219.003 85.0194 218.258 84.7958 217.885 84.1252H217.96Z" fill="#92278F"/>
<path d="M233.905 80.3996C235.247 80.027 235.917 79.0584 235.917 77.5681V76.823C235.917 74.6621 234.576 73.6189 231.968 73.6189H228.317C227.646 73.6189 227.273 74.066 227.273 74.6621V84.0507C227.273 84.4978 227.571 84.7213 227.944 84.7213H229.285C229.732 84.7213 230.031 84.4233 230.031 84.0507V75.7053H231.893C232.788 75.7053 233.235 76.0778 233.235 76.8975V77.7916C233.235 78.6113 232.862 78.9838 231.893 78.9838H231.521C230.999 78.9838 230.701 79.2819 230.701 79.878V80.027C230.701 80.3996 230.776 80.6231 231.074 81.0702L233.384 84.3488C233.682 84.7959 234.129 84.9449 234.576 84.9449C235.023 84.9449 235.098 84.9449 235.321 84.7213C235.694 84.4978 235.917 84.1998 235.992 83.8272C235.992 83.4546 235.992 83.1566 235.768 82.784L233.98 80.4741L233.905 80.3996Z" fill="#F37021"/>
<path d="M244.114 73.6189H241.134C240.538 73.6189 240.165 73.9915 240.165 74.5876V83.7527C240.165 84.3488 240.538 84.7213 241.134 84.7213H244.114C247.393 84.7213 249.107 83.2311 249.107 80.4741V77.8661C249.107 75.0346 247.393 73.6189 244.114 73.6189ZM246.275 77.7916V80.6231C246.275 81.9644 245.53 82.635 244.114 82.635H242.848V75.7053H244.114C245.53 75.7053 246.275 76.3759 246.275 77.7171V77.7916Z" fill="#F37021"/>
<path d="M256.335 84.0507V74.5875C256.335 74.0659 256.708 73.6934 257.229 73.6934H263.19C263.563 73.6934 263.787 73.9169 263.787 74.2895V75.1836C263.787 75.5562 263.563 75.7797 263.19 75.7797H258.943V78.3877H262.222C262.892 78.3877 263.265 78.7603 263.265 79.3564C263.265 80.027 262.892 80.3995 262.222 80.3995H258.943V84.0507C258.943 84.4233 258.719 84.6468 258.272 84.6468H256.931C256.558 84.6468 256.335 84.4233 256.335 84.0507Z" fill="#92278F"/>
<path d="M268.034 82.5604V78.5367H267.289C267.065 78.5367 266.916 78.3877 266.916 78.1641V77.121C266.916 76.8974 267.065 76.7484 267.289 76.7484H269.897C270.418 76.7484 270.642 76.9719 270.642 77.4935V82.4114C270.642 82.7094 270.716 82.784 271.014 82.784H271.536C271.76 82.784 271.909 82.933 271.909 83.1565V84.1252C271.909 84.4978 271.685 84.6468 271.312 84.6468H270.344C268.63 84.6468 268.034 83.9762 268.034 82.5604ZM267.81 75.1091V74.4385C267.81 73.9169 268.108 73.6934 268.63 73.6934H269.748C270.269 73.6934 270.567 73.9914 270.567 74.4385V75.1091C270.567 75.6307 270.269 75.8542 269.748 75.8542H268.63C268.108 75.8542 267.81 75.5562 267.81 75.1091Z" fill="#92278F"/>
<path d="M275.56 85.541V85.392C275.56 85.1685 275.635 85.0194 275.858 85.0194H277.647C277.87 85.0194 277.945 85.094 277.945 85.3175C277.945 85.9136 278.392 86.2117 279.286 86.2117C280.18 86.2117 280.627 85.8391 280.627 85.1685V83.8272C280.18 84.1998 279.51 84.4233 278.764 84.4233C276.827 84.4233 275.411 83.3056 275.411 81.3683V79.729C275.411 77.6427 276.827 76.4504 278.764 76.4504C280.702 76.4504 280.478 76.7485 281 77.3446C281.074 76.823 281.521 76.525 282.043 76.525H282.118C282.714 76.525 283.161 76.972 283.161 77.5681V84.9449C283.161 86.9568 281.745 88 279.286 88C276.827 88 275.56 87.1803 275.56 85.6156V85.541ZM280.627 81.5173V79.58C280.627 78.7603 280.18 78.3133 279.286 78.3133C278.392 78.3133 277.945 78.7603 277.945 79.58V81.5173C277.945 82.2625 278.392 82.7095 279.286 82.7095C280.18 82.7095 280.627 82.337 280.627 81.5173Z" fill="#92278F"/>
<path d="M287.631 84.0508V74.4386C287.631 73.917 288.004 73.5444 288.525 73.5444H289.271C289.792 73.5444 290.165 73.917 290.165 74.4386V77.1956C290.686 76.7485 291.357 76.525 292.177 76.525C294.04 76.525 295.232 77.7172 295.232 79.729V84.1253C295.232 84.4979 295.008 84.7214 294.636 84.7214H293.294C292.922 84.7214 292.698 84.4979 292.698 84.1253V79.729C292.698 78.9094 292.251 78.4623 291.431 78.4623C290.612 78.4623 290.165 78.9094 290.165 79.729V84.1253C290.165 84.4979 289.941 84.7214 289.569 84.7214H288.153C287.78 84.7214 287.557 84.4979 287.557 84.1253L287.631 84.0508Z" fill="#92278F"/>
<path d="M300.075 82.2625V78.5368H299.256C299.032 78.5368 298.809 78.3878 298.809 78.1643V77.1211C298.809 76.8976 298.958 76.7485 299.256 76.7485H300.075V75.4818C300.075 74.9602 300.373 74.5876 300.895 74.5876H301.715C302.236 74.5876 302.534 74.8857 302.534 75.4818V76.7485H303.801C304.025 76.7485 304.248 76.8976 304.248 77.1211V78.1643C304.248 78.3878 304.099 78.5368 303.801 78.5368H302.534V82.1135C302.534 82.5605 302.683 82.7096 303.131 82.7096H303.801C304.025 82.7096 304.248 82.8586 304.248 83.1567V84.1998C304.248 84.4979 304.099 84.7214 303.801 84.7214H302.609C300.671 84.7214 300.001 84.0508 300.001 82.337L300.075 82.2625Z" fill="#92278F"/>
<path d="M307.825 81.7409V79.6545C307.825 77.5681 309.241 76.4504 311.626 76.4504C314.01 76.4504 315.351 77.4936 315.351 79.5055V80.6232C315.351 81.1448 315.128 81.3683 314.681 81.3683H310.359V82.0389C310.359 82.7841 310.731 83.1566 311.775 83.1566C312.818 83.1566 312.967 82.9331 312.967 82.486C312.967 82.2625 312.967 82.188 313.265 82.188H315.053C315.277 82.188 315.351 82.2625 315.351 82.486V82.635C315.351 84.1253 314.085 84.8704 311.849 84.8704C309.614 84.8704 307.974 83.8272 307.974 81.8154L307.825 81.7409ZM310.359 79.2074V79.8035H312.967V79.2074C312.967 78.4623 312.52 78.0897 311.626 78.0897C310.731 78.0897 310.359 78.4623 310.359 79.2074Z" fill="#92278F"/>
<path d="M319.823 84.0507V79.0583L319.301 78.5368C318.928 78.1642 318.928 77.6426 319.301 77.27L319.823 76.823C320.195 76.4504 320.717 76.4504 321.089 76.823L321.909 77.6426C322.282 76.972 322.878 76.5249 323.623 76.5249H323.846C324.517 76.5249 324.964 76.823 324.964 77.4191V77.9407C324.964 78.4622 324.592 78.8348 323.995 78.8348H323.623C322.803 78.8348 322.431 79.2819 322.431 80.1015V83.9762C322.431 84.3488 322.207 84.5723 321.834 84.5723H320.493C320.121 84.5723 319.897 84.3488 319.897 83.9762L319.823 84.0507Z" fill="#92278F"/>
<path d="M328.094 82.5606C328.094 82.2625 328.243 82.1135 328.392 82.1135H329.957C330.18 82.1135 330.255 82.188 330.255 82.4115C330.255 82.9331 330.628 83.1567 331.596 83.1567C332.565 83.1567 332.863 82.9331 332.863 82.4115V82.2625C332.863 81.8899 332.714 81.7409 332.267 81.6664L330.255 81.3684C328.541 81.1448 328.02 80.4742 328.02 79.133V78.9839C328.02 77.4192 329.212 76.376 331.596 76.376C333.981 76.376 335.024 77.1211 335.024 78.6859C335.024 78.9839 334.875 79.0584 334.726 79.0584H333.161C332.938 79.0584 332.863 78.9839 332.863 78.7604C332.863 78.2388 332.565 78.0153 331.596 78.0153C330.628 78.0153 330.404 78.2388 330.404 78.6859V78.8349C330.404 79.2075 330.553 79.3565 331 79.431L333.012 79.7291C334.726 79.9526 335.248 80.6232 335.248 81.9645V82.1135C335.248 83.6783 334.055 84.7214 331.671 84.7214C329.286 84.7214 328.094 83.9763 328.094 82.4115V82.5606Z" fill="#92278F"/>
<path d="M190.463 36.884H0V47.3159H190.463V36.884Z" fill="#92278F"/>
</g>
<defs>
<linearGradient id="paint0_linear_54_122" x1="116.245" y1="-31.7425" x2="201.414" y2="53.4292" gradientUnits="userSpaceOnUse">
<stop stop-color="white"/>
<stop offset="0.5" stop-color="#F37021"/>
</linearGradient>
<clipPath id="clip0_54_122">
<rect width="335.396" height="88" fill="white"/>
</clipPath>
</defs>
</svg>
