<svg width="195" height="160" viewBox="0 0 195 160" fill="none" xmlns="http://www.w3.org/2000/svg">
<path d="M7.56963 25.5323C6.42536 27.422 3.96585 28.0263 2.07615 26.882C0.186456 25.7377 -0.417833 23.2782 0.726435 21.3885L7.56963 25.5323ZM72.3958 61.6463L76.196 62.8947L72.3958 61.6463ZM62.3666 41.4065L66.2051 42.5313L62.3666 41.4065ZM90.8007 14.8392L90.7783 10.8393L90.8007 14.8392ZM127.797 70.0716L123.86 69.3641L127.797 70.0716ZM112.772 97.3005L115.601 100.129L115.097 100.633L114.451 100.931L112.772 97.3005ZM165.5 55.1295L166.972 51.4102L165.5 55.1295ZM154.722 159.709C152.513 159.743 150.695 157.979 150.662 155.77L150.113 119.775C150.079 117.566 151.842 115.748 154.051 115.714C156.26 115.68 158.078 117.444 158.112 119.653L158.6 151.649L190.596 151.161C192.805 151.127 194.623 152.89 194.657 155.099C194.69 157.308 192.927 159.126 190.718 159.16L154.722 159.709ZM0.726435 21.3885C8.41919 8.68437 23.173 1.21428 37.6921 0.135319C52.2691 -0.947947 67.532 4.38248 75.5829 18.469L68.6372 22.4386C62.5243 11.7428 50.7007 7.19067 38.285 8.11332C25.8113 9.04028 13.6659 15.4646 7.56963 25.5323L0.726435 21.3885ZM75.5829 18.469C84.049 33.282 80.7083 49.1594 76.196 62.8947L68.5956 60.3978C73.0189 46.9334 75.2755 34.0535 68.6372 22.4386L75.5829 18.469ZM76.196 62.8947C75.7715 64.1867 73.4756 69.5849 70.6804 73.8166C69.3647 75.8086 67.4969 78.2465 65.2022 79.4836C63.9337 80.1675 62.1387 80.6913 60.1649 80.073C58.2381 79.4695 56.9752 78.0353 56.1676 76.6222L63.1133 72.6526C63.349 73.0651 63.2473 72.6552 62.5561 72.4387C61.8179 72.2075 61.333 72.481 61.4058 72.4418C61.7939 72.2326 62.7338 71.3322 64.0051 69.4075C65.1597 67.6596 66.2537 65.5909 67.1112 63.7994C67.5353 62.9132 67.8901 62.1191 68.1538 61.4989C68.2857 61.1888 68.3919 60.929 68.4708 60.7286C68.5102 60.6285 68.5409 60.5481 68.5634 60.4872C68.5873 60.4227 68.5963 60.3956 68.5956 60.3978L76.196 62.8947ZM56.1676 76.6222C52.9721 71.0311 53.2702 63.6237 54.274 57.3435C55.3094 50.8657 57.3124 44.4301 58.528 40.2817L66.2051 42.5313C64.9328 46.8734 63.1105 52.7452 62.1737 58.6062C61.2053 64.6647 61.3843 69.6275 63.1133 72.6526L56.1676 76.6222ZM58.528 40.2817C62.6059 26.3646 72.8772 10.9398 90.7783 10.8393L90.8232 18.8391C78.39 18.909 69.9675 29.6914 66.2051 42.5313L58.528 40.2817ZM90.7783 10.8393C107.202 10.747 118.887 18.9427 125.658 30.658C132.327 42.1996 134.203 57.0412 131.734 70.779L123.86 69.3641C126.056 57.1464 124.295 44.2883 118.731 34.6609C113.268 25.2071 104.122 18.7645 90.8232 18.8391L90.7783 10.8393ZM131.734 70.779C129.506 83.177 123.922 91.8067 115.601 100.129L109.944 94.4723C117.427 86.988 121.991 79.7644 123.86 69.3641L131.734 70.779ZM114.451 100.931C111.171 102.447 107.753 102.854 104.651 101.723C101.522 100.582 99.35 98.1068 98.1678 95.1331C95.8681 89.3486 97.0412 81.3438 101.58 73.355L108.535 77.3065C104.671 84.1095 104.529 89.4799 105.602 92.1776C106.106 93.4449 106.791 93.9878 107.392 94.2067C108.019 94.4353 109.202 94.5441 111.094 93.6695L114.451 100.931ZM101.58 73.355C104.143 68.8432 108.633 64.9244 113.764 61.6965C118.957 58.4293 125.125 55.6696 131.45 53.6084C137.777 51.5465 144.377 50.1455 150.463 49.6627C156.473 49.1861 162.336 49.5754 166.972 51.4102L164.028 58.8488C161.01 57.6547 156.541 57.2058 151.096 57.6377C145.727 58.0635 139.749 59.318 133.929 61.2147C128.107 63.112 122.56 65.614 118.024 68.4678C113.426 71.3608 110.174 74.4223 108.535 77.3065L101.58 73.355ZM166.972 51.4102C185.439 58.7186 192.085 76.7854 189.707 96.7605C187.333 116.695 176.038 139.416 157.532 158.494L151.79 152.924C169.329 134.842 179.636 113.678 181.763 95.8147C183.885 77.9923 177.928 64.3496 164.028 58.8488L166.972 51.4102Z" fill="black"/>
</svg>
