<svg width="129" height="223" viewBox="0 0 129 223" fill="none" xmlns="http://www.w3.org/2000/svg">
<path d="M37.7077 7.8461C39.8318 7.2392 41.0618 5.02526 40.4549 2.90112C39.848 0.776975 37.634 -0.452993 35.5099 0.153904L37.7077 7.8461ZM55.4977 79.8889L55.7025 83.8836L55.4977 79.8889ZM38.6088 64.8889L38.6842 68.8882L38.6088 64.8889ZM5.49767 85.3333L1.6445 84.2595L5.49767 85.3333ZM49.0532 135.556L49.4063 131.571L49.0532 135.556ZM79.2754 128.222L81.26 131.695L81.8786 131.342L82.3371 130.796L79.2754 128.222ZM24.7199 168L20.7444 168.442L24.7199 168ZM128.451 185.111C129.065 182.989 127.842 180.771 125.72 180.157L91.1359 170.159C89.0137 169.546 86.7959 170.769 86.1824 172.891C85.5688 175.013 86.7919 177.231 88.9141 177.844L119.655 186.732L110.768 217.473C110.154 219.595 111.377 221.813 113.5 222.426C115.622 223.04 117.84 221.817 118.453 219.695L128.451 185.111ZM35.5099 0.153904C21.2296 4.23399 10.1417 16.5032 5.28153 30.2272C0.401997 44.006 1.52989 60.1335 13.0026 71.6062L18.6594 65.9494C9.9483 57.2382 8.66657 44.6336 12.8226 32.8978C16.9981 21.1072 26.3909 11.0794 37.7077 7.8461L35.5099 0.153904ZM13.0026 71.6062C25.067 83.6707 41.264 84.6241 55.7025 83.8836L55.2928 75.8941C41.139 76.62 28.1191 75.409 18.6594 65.9494L13.0026 71.6062ZM55.7025 83.8836C57.0607 83.814 62.8727 83.0188 67.6906 81.4353C69.9585 80.6899 72.802 79.5291 74.5991 77.6407C75.5926 76.5967 76.57 75.0027 76.4928 72.9358C76.4173 70.9181 75.3659 69.3224 74.215 68.1716L68.5581 73.8284C68.8941 74.1644 68.5254 73.9584 68.4983 73.2346C68.4694 72.4616 68.8609 72.0657 68.8039 72.1257C68.4999 72.445 67.384 73.115 65.1927 73.8353C63.2027 74.4894 60.919 75.0007 58.965 75.3568C57.9985 75.5329 57.139 75.6663 56.4714 75.7576C56.1374 75.8032 55.8589 75.8373 55.6448 75.8608C55.5378 75.8725 55.4522 75.8809 55.3875 75.8866C55.319 75.8927 55.2905 75.8943 55.2928 75.8941L55.7025 83.8836ZM74.215 68.1716C69.6613 63.6179 62.4363 61.957 56.1133 61.2735C49.5912 60.5684 42.8555 60.8081 38.5333 60.8896L38.6842 68.8882C43.2082 68.8028 49.3525 68.5892 55.2535 69.2271C61.3534 69.8865 66.0943 71.3646 68.5581 73.8284L74.215 68.1716ZM38.5333 60.8896C24.0337 61.1632 6.45026 67.0153 1.6445 84.2595L9.35083 86.4072C12.6887 74.4302 25.3069 69.1406 38.6842 68.8882L38.5333 60.8896ZM1.6445 84.2595C-2.76474 100.081 2.06865 113.51 11.5905 123.124C20.9712 132.595 34.7968 138.308 48.7002 139.54L49.4063 131.571C37.0413 130.476 25.0993 125.394 17.2744 117.494C9.59065 109.736 5.78047 99.2185 9.35083 86.4072L1.6445 84.2595ZM48.7002 139.54C61.2476 140.652 71.0424 137.534 81.26 131.695L77.2909 124.749C68.1018 130 59.9319 132.504 49.4063 131.571L48.7002 139.54ZM82.3371 130.796C84.6623 128.031 85.9536 124.841 85.6781 121.55C85.4004 118.231 83.584 115.485 81.026 113.562C76.0502 109.822 68.0187 108.848 59.1174 111.125L61.1001 118.875C68.6801 116.936 73.8986 118.212 76.2191 119.957C77.3093 120.776 77.6527 121.58 77.706 122.217C77.7617 122.882 77.5553 124.052 76.2138 125.648L82.3371 130.796ZM59.1174 111.125C54.0904 112.411 49.1283 115.713 44.6645 119.813C40.1463 123.964 35.8612 129.189 32.2089 134.749C28.5555 140.311 25.4676 146.31 23.4009 152.055C21.3602 157.728 20.1938 163.486 20.7444 168.442L28.6954 167.558C28.337 164.333 29.0795 159.903 30.9286 154.763C32.7517 149.695 35.5345 144.258 38.8953 139.142C42.2573 134.024 46.1302 129.33 50.0767 125.705C54.0774 122.029 57.8865 119.697 61.1001 118.875L59.1174 111.125ZM20.7444 168.442C22.9376 188.181 38.6201 199.345 58.5173 202.305C78.374 205.259 103.266 200.338 126.54 187.503L122.677 180.497C100.618 192.662 77.4878 197.039 59.6944 194.392C41.9415 191.751 30.3462 182.415 28.6954 167.558L20.7444 168.442Z" fill="black"/>
</svg>
